<?xml version="1.0" standalone="no"?>
<!DOCTYPE svg PUBLIC "-//W3C//DTD SVG 20010904//EN"
 "http://www.w3.org/TR/2001/REC-SVG-20010904/DTD/svg10.dtd">
<svg version="1.0" xmlns="http://www.w3.org/2000/svg"
 width="665.000000pt" height="665.000000pt" viewBox="0 0 665.000000 665.000000"
 preserveAspectRatio="xMidYMid meet">
<metadata>
Created by potrace 1.11, written by Peter Selinger 2001-2013
</metadata>
<g transform="translate(0.000000,665.000000) scale(0.100000,-0.100000)"
fill="#000000" stroke="none">
<path d="M3127 6643 c-4 -3 -23 -6 -42 -5 -19 1 -35 -3 -35 -8 0 -5 -11 -7
-25 -4 -16 3 -25 0 -25 -8 0 -9 -4 -8 -11 2 -7 11 -12 12 -15 3 -3 -7 -12 -9
-21 -6 -12 5 -14 3 -8 -8 8 -12 6 -12 -9 0 -15 13 -19 13 -27 0 -6 -10 -9 -11
-9 -1 0 10 -5 10 -20 2 -11 -6 -20 -7 -20 -3 0 4 -5 2 -12 -5 -7 -7 -17 -8
-30 -1 -11 6 -18 6 -18 0 0 -5 -9 -8 -20 -6 -11 2 -20 0 -20 -5 0 -5 -7 -6
-17 -3 -12 5 -14 3 -8 -8 8 -12 6 -12 -8 0 -11 8 -17 9 -17 3 0 -7 -7 -9 -17
-5 -11 5 -14 3 -8 -6 6 -10 3 -11 -12 -2 -11 6 -24 6 -29 1 -9 -8 -60 -20 -97
-23 -11 -1 -15 -7 -12 -16 4 -11 2 -11 -8 -3 -10 9 -17 8 -25 0 -9 -9 -12 -9
-12 1 0 7 -5 9 -10 6 -6 -4 -8 -10 -5 -15 3 -4 -4 -6 -15 -3 -13 3 -20 0 -20
-8 0 -11 -2 -11 -10 1 -7 11 -10 11 -10 2 0 -7 -4 -11 -9 -7 -5 3 -17 -2 -25
-11 -12 -11 -16 -12 -16 -2 0 8 -3 9 -8 3 -7 -10 -27 -17 -49 -18 -7 0 -13 -4
-13 -8 0 -5 -7 -5 -17 -2 -12 5 -14 3 -8 -8 8 -12 6 -12 -9 0 -15 12 -17 12
-14 0 2 -8 -4 -15 -12 -15 -8 -1 -21 -2 -28 -3 -7 0 -11 -5 -8 -9 3 -5 -5 -8
-17 -7 -31 3 -48 -5 -40 -19 3 -6 3 -8 -1 -4 -10 9 -67 -12 -61 -22 3 -4 -4
-6 -15 -3 -12 3 -20 0 -20 -7 0 -8 -8 -10 -21 -7 -15 4 -19 2 -15 -8 3 -9 0
-12 -8 -9 -17 6 -88 -30 -79 -40 4 -4 -1 -4 -10 0 -12 4 -23 0 -32 -12 -8 -11
-15 -15 -15 -10 0 5 -8 2 -17 -5 -14 -12 -16 -12 -9 1 4 8 -2 4 -14 -9 -11
-14 -29 -25 -38 -26 -28 -3 -52 -17 -47 -25 3 -5 1 -11 -5 -15 -5 -3 -10 -1
-10 5 0 6 -10 2 -22 -10 -12 -11 -28 -20 -35 -20 -7 0 -13 -4 -13 -10 0 -5 -6
-10 -13 -10 -7 0 -23 -9 -35 -20 -12 -12 -22 -18 -22 -15 0 3 -6 0 -14 -7 -8
-7 -11 -17 -8 -23 3 -5 -2 -4 -11 4 -15 12 -17 11 -17 -2 0 -9 -5 -19 -12 -23
-7 -5 -8 -3 -3 7 8 12 6 12 -8 0 -9 -7 -15 -17 -12 -21 3 -5 0 -12 -6 -16 -8
-4 -9 -3 -5 4 17 28 -10 11 -61 -38 -19 -18 -23 -20 -14 -5 8 11 2 8 -12 -8
-15 -15 -30 -28 -34 -30 -5 -1 -7 -5 -5 -9 1 -5 -5 -8 -14 -8 -8 0 -13 -4 -9
-9 3 -5 1 -13 -5 -16 -6 -4 -10 -3 -9 2 4 22 -5 17 -52 -28 -28 -27 -53 -49
-55 -49 -3 0 -18 -13 -34 -30 -16 -16 -34 -30 -39 -30 -5 0 -8 -9 -6 -21 4
-18 2 -19 -11 -8 -12 10 -15 10 -12 -2 2 -8 -3 -13 -11 -11 -9 2 -12 -4 -8
-18 3 -11 1 -18 -4 -15 -5 4 -22 -7 -38 -24 -16 -16 -32 -27 -35 -24 -3 4 -6
-1 -6 -9 0 -9 -7 -19 -16 -22 -9 -3 -14 -12 -11 -20 4 -10 0 -12 -13 -9 -15 4
-18 1 -15 -15 2 -14 -1 -19 -10 -16 -7 3 -16 0 -21 -7 -5 -8 -3 -10 7 -5 8 5
-1 -4 -19 -19 -18 -15 -30 -31 -26 -36 3 -5 0 -8 -7 -7 -6 2 -14 -3 -17 -11
-3 -9 0 -11 9 -6 8 5 11 4 6 -1 -5 -5 -14 -9 -20 -9 -7 0 -11 -8 -11 -18 1 -9
-2 -14 -7 -11 -12 7 -39 -21 -39 -40 0 -9 -7 -16 -16 -16 -14 0 -14 -3 -4 -15
11 -13 10 -14 -4 -9 -10 4 -16 1 -16 -9 0 -9 -5 -19 -12 -23 -7 -5 -8 -3 -3 6
5 9 4 11 -4 6 -6 -4 -10 -15 -9 -24 2 -9 -3 -16 -9 -14 -7 1 -13 -2 -13 -8 0
-18 -4 -25 -35 -54 -16 -16 -23 -25 -15 -22 12 6 11 5 -1 -6 -9 -7 -15 -21
-13 -31 1 -9 -2 -15 -7 -11 -5 3 -12 -2 -15 -10 -3 -9 -11 -13 -18 -9 -6 4 -5
-1 3 -11 8 -9 10 -16 5 -14 -5 2 -11 -1 -13 -7 -3 -5 -14 -18 -25 -27 -12 -10
-16 -17 -8 -18 6 0 12 5 12 10 0 6 6 10 13 10 6 -1 2 -9 -10 -19 -13 -11 -23
-24 -23 -30 0 -5 -5 -13 -12 -17 -7 -5 -8 -3 -3 6 5 8 4 11 -2 7 -6 -4 -9 -18
-7 -32 2 -20 0 -24 -11 -15 -9 8 -12 5 -11 -12 1 -15 -4 -22 -13 -20 -12 3
-12 0 -2 -12 10 -11 8 -17 -8 -28 -12 -8 -18 -18 -14 -21 3 -4 1 -7 -6 -7 -7
0 -9 -4 -6 -10 3 -5 1 -10 -5 -10 -6 0 -8 -4 -5 -10 3 -5 1 -10 -6 -10 -6 0
-9 -8 -6 -19 3 -14 1 -18 -9 -14 -10 4 -12 0 -8 -11 4 -9 1 -16 -6 -16 -10 0
-10 -3 0 -15 11 -13 10 -14 -4 -9 -11 4 -16 1 -16 -11 0 -10 -8 -24 -18 -32
-16 -14 -16 -14 3 -9 17 5 16 3 -5 -15 -14 -11 -19 -18 -12 -14 6 3 12 2 12
-3 0 -6 -7 -12 -15 -16 -9 -3 -12 -12 -8 -22 5 -13 3 -15 -7 -9 -10 6 -12 4
-7 -8 3 -10 3 -17 -2 -17 -9 0 -26 -48 -23 -62 1 -5 -3 -8 -9 -8 -7 0 -9 -10
-7 -25 3 -13 1 -22 -3 -19 -5 3 -9 -2 -9 -10 0 -9 -5 -16 -11 -16 -8 0 -7 -5
1 -15 7 -9 10 -18 6 -22 -3 -3 -6 -1 -6 6 0 7 -4 10 -9 6 -6 -3 -8 -14 -6 -25
2 -11 0 -20 -6 -20 -5 0 -9 -5 -9 -11 0 -5 6 -7 13 -3 9 6 9 5 0 -8 -7 -8 -9
-19 -5 -23 4 -5 1 -5 -5 -1 -13 7 -17 -4 -14 -31 1 -7 -3 -13 -10 -13 -8 0 -8
-4 1 -15 10 -12 9 -16 -4 -21 -13 -5 -14 -9 -5 -20 9 -12 9 -13 -3 -9 -9 4
-15 0 -15 -10 0 -8 5 -15 11 -15 5 0 1 -6 -10 -14 -10 -8 -16 -18 -12 -22 4
-4 3 -13 -2 -19 -6 -7 -11 -24 -12 -39 -1 -14 -7 -26 -13 -26 -6 0 -7 -3 0 -8
13 -9 19 -35 6 -28 -5 3 -11 -3 -14 -14 -3 -11 -1 -23 4 -26 6 -4 6 -10 0 -18
-7 -9 -7 -16 2 -25 9 -10 8 -11 -6 -6 -20 8 -23 -5 -4 -24 10 -11 9 -13 -5 -8
-14 5 -17 2 -14 -16 2 -12 -3 -35 -11 -51 -8 -15 -11 -26 -6 -23 5 3 9 -9 9
-28 -1 -18 -4 -31 -8 -29 -10 7 -6 -39 5 -54 7 -9 6 -11 -4 -7 -10 4 -15 -2
-16 -15 -1 -11 2 -18 6 -16 4 3 7 -4 8 -14 1 -11 -2 -22 -8 -25 -5 -3 -6 1 -3
9 3 9 1 16 -4 16 -13 0 -5 -49 11 -70 6 -8 1 -6 -11 5 l-23 19 10 -27 c7 -17
7 -27 1 -27 -6 0 -10 -5 -10 -11 0 -5 4 -8 8 -5 10 6 9 -25 -2 -42 -11 -18 -5
-415 7 -429 5 -8 6 -13 0 -13 -12 0 -3 -73 11 -82 8 -6 8 -8 -1 -8 -7 0 -10
-10 -6 -27 3 -16 6 -38 6 -50 1 -13 5 -23 9 -23 5 0 4 -10 -3 -22 -10 -19 -9
-20 7 -14 15 6 16 5 7 -5 -8 -8 -9 -18 -2 -31 7 -13 6 -18 -3 -18 -9 0 -9 -3
-1 -11 6 -6 9 -18 6 -27 -4 -8 -2 -13 3 -9 5 3 10 -13 11 -36 3 -60 9 -82 22
-80 6 2 11 -2 11 -7 0 -6 -4 -10 -9 -10 -10 0 -9 -25 1 -36 4 -3 4 -13 1 -22
-4 -8 -2 -13 3 -9 6 3 10 -8 10 -26 0 -21 4 -31 13 -29 8 1 10 -2 5 -10 -15
-23 -13 -38 4 -38 12 0 14 -3 5 -8 -10 -6 -9 -17 6 -45 10 -20 14 -34 9 -30
-6 3 -8 0 -6 -8 3 -8 11 -13 18 -11 11 3 11 0 0 -12 -9 -12 -10 -16 0 -16 7 0
10 -7 7 -15 -4 -8 -2 -17 3 -20 5 -3 6 -13 3 -22 -4 -11 -3 -14 5 -9 12 7 16
-4 12 -38 -1 -12 2 -16 11 -11 7 5 10 4 6 -2 -4 -6 0 -29 8 -52 8 -23 14 -44
14 -47 0 -3 3 -9 7 -12 4 -4 4 0 -1 8 -5 8 -4 12 0 7 5 -4 10 -18 12 -30 5
-34 12 -49 21 -43 4 2 7 -9 6 -25 -1 -20 5 -37 19 -51 12 -12 16 -18 10 -14
-9 5 -11 2 -7 -8 3 -9 10 -16 16 -16 5 0 6 -5 3 -10 -3 -6 -1 -10 5 -10 6 0 9
-4 5 -9 -3 -5 0 -13 6 -16 5 -4 8 -13 5 -20 -2 -7 6 -23 20 -36 13 -12 24 -27
24 -33 0 -6 -5 -4 -10 4 -5 8 -10 11 -10 7 0 -16 37 -57 45 -49 3 4 6 2 5 -3
-5 -24 2 -45 25 -79 14 -21 20 -34 13 -30 -7 4 -3 -3 9 -14 12 -12 24 -31 28
-42 4 -11 11 -17 17 -14 6 4 8 2 5 -4 -9 -14 3 -43 14 -36 8 5 13 -9 10 -28 0
-5 4 -8 9 -8 6 0 10 -7 10 -15 0 -8 5 -15 10 -15 6 0 10 -10 10 -22 0 -19 2
-20 10 -8 8 12 10 11 10 -7 0 -13 4 -23 8 -23 5 0 15 -12 23 -28 8 -15 22 -35
33 -44 14 -13 15 -18 5 -18 -9 0 -7 -5 6 -12 23 -13 46 -35 45 -43 -1 -21 1
-25 10 -20 6 3 10 2 10 -3 0 -5 8 -18 18 -30 9 -11 28 -36 42 -53 14 -18 33
-40 43 -48 9 -9 17 -21 17 -28 0 -6 9 -15 20 -18 11 -3 20 -13 20 -21 0 -8 7
-17 15 -20 8 -4 15 -14 16 -23 0 -12 2 -12 9 4 l9 20 1 -20 c2 -11 2 -24 1
-29 -1 -5 7 -6 18 -3 14 3 18 1 14 -9 -3 -8 0 -14 7 -14 6 0 8 -4 5 -10 -3 -5
-1 -10 5 -10 6 0 29 -18 50 -40 21 -22 42 -40 47 -40 4 0 19 -13 33 -30 14
-16 31 -30 38 -30 7 0 11 -3 9 -7 -2 -5 4 -16 15 -26 10 -9 18 -15 18 -12 0 3
6 0 14 -7 8 -7 12 -16 9 -21 -2 -4 -1 -7 4 -6 20 4 27 -2 13 -12 -12 -9 -12
-10 4 -5 12 4 26 -2 43 -21 14 -16 22 -22 18 -14 -5 9 0 8 18 -4 14 -9 28 -23
31 -31 3 -8 13 -14 21 -14 9 0 13 -4 10 -10 -3 -5 -2 -10 4 -10 5 0 12 6 15
13 4 6 4 2 2 -10 -3 -17 0 -21 15 -18 12 3 19 -2 19 -12 0 -10 6 -13 16 -9 8
3 12 2 9 -4 -3 -6 1 -10 9 -10 9 0 16 -8 17 -17 0 -10 3 -13 6 -6 3 10 7 10
18 0 7 -7 10 -16 7 -22 -3 -5 -2 -7 3 -3 4 4 14 3 22 -4 11 -9 12 -7 8 8 -4
13 -2 12 6 -3 7 -13 16 -24 21 -24 4 -1 12 -2 17 -3 6 0 19 -11 31 -24 12 -12
25 -20 31 -17 5 4 9 1 9 -4 0 -6 7 -11 15 -11 8 0 15 -4 15 -10 0 -5 12 -10
28 -10 21 0 24 -2 12 -10 -13 -8 -13 -10 1 -10 24 0 70 -26 62 -34 -4 -4 0 -4
10 0 10 3 17 1 17 -6 0 -6 5 -8 10 -5 6 3 10 1 10 -5 0 -6 4 -8 10 -5 5 3 10
3 10 -2 0 -12 58 -36 69 -29 5 4 16 -1 25 -10 9 -8 20 -12 26 -9 5 3 10 1 10
-5 0 -6 4 -8 10 -5 6 3 10 -2 11 -12 0 -11 3 -13 6 -5 4 10 8 10 17 -3 12 -16
61 -30 51 -14 -4 5 -11 6 -17 3 -7 -5 -8 -2 -3 5 5 9 14 6 34 -13 16 -15 39
-26 55 -26 18 0 25 -4 20 -12 -4 -7 -3 -8 5 -4 6 4 19 2 28 -6 12 -9 15 -9 9
-1 -5 9 -2 11 8 7 9 -3 13 -10 10 -15 -3 -5 2 -9 11 -9 10 0 13 5 9 13 -4 6 4
2 17 -10 19 -17 28 -20 43 -11 16 9 18 8 13 -6 -4 -11 -3 -15 4 -11 5 4 17 1
26 -7 14 -11 16 -11 8 2 -7 12 -6 13 6 4 8 -6 22 -10 32 -9 15 3 16 1 5 -12
-12 -15 -11 -15 10 -4 21 11 26 8 23 -14 -1 -5 5 -2 13 8 13 17 14 17 20 0 6
-15 8 -15 16 -3 8 13 10 12 10 -2 0 -9 5 -20 10 -23 6 -4 9 -1 8 6 -2 6 3 14
11 17 9 3 11 0 6 -8 -5 -9 -2 -10 13 -6 11 4 23 2 27 -4 3 -6 11 -8 16 -5 5 4
9 0 9 -7 0 -9 3 -9 10 2 5 8 10 10 10 4 0 -10 13 -14 53 -15 9 0 16 -3 13 -7
-5 -9 47 -8 62 2 6 3 13 2 16 -3 4 -5 21 -9 38 -9 18 1 34 -4 36 -10 2 -7 8
-12 13 -12 6 0 8 4 4 9 -3 5 0 13 6 17 7 4 9 3 5 -4 -3 -6 -2 -13 3 -16 5 -4
12 -2 16 4 4 6 16 5 35 -5 34 -18 40 -18 40 -4 0 5 -5 7 -12 3 -7 -4 -8 -3 -4
5 10 16 39 -6 29 -23 -3 -6 0 -6 8 2 17 16 32 16 23 0 -5 -9 -2 -9 9 1 11 9
17 10 17 2 0 -6 5 -11 11 -11 6 0 9 7 6 14 -4 10 -1 13 8 9 8 -3 12 -10 8 -17
-4 -6 0 -6 9 2 11 9 18 10 23 2 3 -5 13 -10 21 -10 10 0 12 5 8 13 -6 9 -4 9
8 -1 12 -10 52 -13 147 -11 71 1 129 5 127 8 -2 3 7 6 20 6 13 0 24 -3 24 -7
0 -8 21 -5 37 5 6 4 14 3 18 -3 4 -7 13 -7 26 1 11 6 27 8 35 5 9 -3 12 -1 9
4 -3 6 0 11 7 11 7 1 20 2 28 3 8 0 18 -3 22 -9 4 -6 8 -2 8 9 0 15 3 16 15 6
8 -6 20 -8 27 -4 7 4 24 9 38 10 14 2 34 5 45 8 11 2 30 5 43 5 14 1 22 7 23
19 0 10 3 12 6 4 2 -6 9 -10 14 -6 5 3 9 0 9 -6 0 -7 6 -5 15 4 9 8 22 13 29
10 8 -3 17 0 21 6 5 8 11 8 21 -1 11 -9 14 -9 14 0 0 7 5 9 10 6 6 -3 10 -2
10 3 0 6 9 8 20 5 11 -3 20 -1 20 5 0 6 12 10 28 10 15 0 40 7 56 15 16 9 33
14 38 11 5 -3 15 0 23 6 8 7 15 9 15 4 0 -4 7 1 16 12 8 10 13 14 10 7 -4 -6
-2 -14 3 -17 5 -3 12 1 15 10 3 8 10 12 16 9 5 -3 10 -2 10 3 0 5 12 8 26 6
14 -1 27 3 30 11 3 7 14 12 25 10 10 -2 19 1 19 7 0 5 7 7 15 4 9 -3 18 1 22
10 3 9 13 14 24 11 11 -3 19 0 19 6 0 6 3 8 6 4 3 -3 16 3 27 14 12 11 27 17
35 14 7 -2 16 3 19 12 6 14 8 14 21 -3 13 -16 14 -17 9 -1 -5 12 -1 17 13 17
11 0 20 5 20 11 0 5 5 7 10 4 6 -3 10 -1 10 5 0 6 5 8 10 5 6 -3 10 -1 10 5 0
7 7 10 15 6 9 -3 15 0 15 9 0 8 9 16 20 16 33 2 38 4 47 13 5 5 2 6 -6 1 -10
-6 -12 -4 -6 4 4 7 16 11 26 8 11 -3 17 -1 14 4 -3 4 6 11 20 15 14 3 25 10
25 16 0 5 -5 6 -12 2 -7 -5 -8 -3 -3 5 5 9 10 10 18 2 14 -14 30 -14 22 -1 -3
6 1 10 10 10 8 0 18 6 21 14 3 8 12 12 20 9 7 -3 17 2 20 11 3 9 10 14 14 11
5 -3 13 3 19 12 9 16 12 16 22 3 9 -13 10 -13 7 0 -5 18 22 51 35 43 6 -3 16
2 24 12 7 11 13 15 13 9 0 -5 10 2 21 16 11 14 18 18 14 10 -4 -8 1 -6 10 5 9
11 19 19 23 18 4 -1 6 4 6 12 -1 8 4 11 13 8 8 -3 23 4 34 16 11 12 25 18 31
15 6 -4 9 -3 6 2 -8 12 17 35 28 26 4 -4 4 2 0 13 -4 11 -4 16 0 12 4 -4 14
-1 22 6 13 10 14 9 7 -2 -6 -10 -4 -12 4 -7 7 5 10 15 7 23 -3 8 -2 12 3 8 13
-7 42 5 35 16 -3 5 0 9 6 9 6 0 8 5 4 12 -5 7 -2 9 8 6 8 -4 20 2 27 13 6 11
17 17 24 13 7 -4 9 -4 5 0 -3 4 15 28 40 54 26 26 46 50 44 55 -1 5 2 6 7 3
13 -8 34 21 25 35 -4 8 -3 9 4 5 7 -4 30 10 54 33 23 23 40 41 37 41 -3 0 15
21 40 47 25 27 64 70 86 98 22 27 48 59 58 69 9 11 17 23 17 27 0 4 13 22 30
40 16 18 28 35 25 37 -2 3 6 13 18 24 12 11 15 17 7 13 -8 -4 -6 2 6 12 28 25
100 135 155 238 12 22 26 43 31 46 5 3 9 8 7 10 -3 5 32 82 41 89 5 5 32 59
35 70 0 3 9 19 18 37 9 18 17 39 17 47 0 8 6 21 13 28 7 7 21 39 32 70 10 31
21 55 24 53 3 -2 7 7 7 20 1 12 9 37 17 56 18 40 67 185 72 214 2 11 13 54 24
95 20 70 30 117 37 165 1 11 3 20 4 20 3 0 10 38 15 75 2 19 4 35 5 35 5 0 22
128 23 170 0 17 5 33 11 37 7 5 7 8 -2 8 -7 0 -10 4 -7 10 7 12 14 84 16 175
2 58 3 64 10 35 4 -19 7 56 6 167 -1 112 -6 203 -10 203 -5 0 -5 -4 -2 -10 3
-6 2 -10 -3 -10 -5 0 -9 12 -9 26 0 18 2 22 8 13 7 -11 9 -10 9 4 0 9 -6 17
-14 17 -10 0 -12 7 -8 22 4 16 2 19 -9 13 -11 -7 -12 -6 -2 6 17 21 17 22 4
47 -8 15 -8 22 -1 22 6 0 8 5 3 13 -4 6 -8 21 -9 32 -4 48 -14 112 -23 143 -5
17 -7 32 -4 32 3 0 -1 8 -8 17 -8 9 -9 14 -2 10 8 -5 9 0 3 20 -15 49 -30 107
-34 133 -3 14 -5 25 -6 25 -1 0 -4 13 -6 29 -2 16 -7 33 -13 39 -5 5 -7 16 -4
23 3 8 0 14 -7 14 -6 0 -9 4 -6 9 5 8 -2 35 -28 106 -6 17 -11 33 -12 38 -1 4
-3 9 -4 12 -1 3 -4 10 -5 15 -1 6 -4 13 -5 18 -1 4 -2 10 -1 15 0 4 -4 7 -9 7
-6 0 -10 8 -10 19 0 10 -7 31 -14 47 -8 15 -13 31 -10 36 3 4 0 8 -5 8 -6 0
-11 7 -11 15 0 8 -4 23 -9 33 -15 27 -71 152 -71 157 0 3 -11 23 -25 45 -14
22 -22 40 -19 40 4 0 2 6 -4 13 -9 11 -21 31 -80 137 -14 25 -29 48 -34 51 -6
3 -10 10 -11 15 -1 16 -39 74 -48 74 -4 0 -6 7 -3 15 4 9 0 15 -10 15 -9 0
-15 3 -14 8 3 8 -70 121 -88 137 -6 6 -24 28 -40 50 -37 51 -52 69 -91 113
-18 20 -33 40 -33 44 0 4 -7 8 -17 8 -9 0 -14 3 -10 6 9 9 -25 44 -36 37 -6
-3 -7 -1 -4 5 4 5 -6 22 -23 35 -16 14 -30 31 -30 37 0 6 -4 8 -10 5 -5 -3
-10 2 -10 11 0 10 -3 15 -6 11 -3 -3 -17 7 -31 24 -14 16 -30 26 -35 22 -6 -3
-8 -1 -5 4 4 6 -16 30 -44 54 -90 78 -96 84 -129 109 -18 14 -44 37 -59 51
-14 14 -30 26 -34 26 -5 1 -22 13 -38 27 -16 14 -29 23 -29 19 0 -5 -4 -3 -8
3 -8 12 -98 74 -107 74 -3 0 -15 9 -27 20 -12 11 -28 20 -35 20 -7 0 -13 5
-13 10 0 6 -7 10 -15 10 -8 0 -15 5 -15 10 0 6 -9 10 -20 10 -11 0 -20 5 -20
10 0 6 -7 10 -15 10 -8 0 -15 5 -15 12 0 6 -3 9 -6 5 -4 -3 -22 6 -42 21 -19
15 -40 27 -46 27 -6 1 -33 12 -61 25 -27 13 -53 23 -57 22 -5 -1 -8 3 -8 10 0
6 -3 8 -7 5 -3 -4 -12 1 -19 11 -10 13 -13 14 -14 3 0 -11 -4 -10 -16 5 -8 10
-13 12 -9 4 4 -10 2 -9 -8 3 -8 9 -20 17 -27 17 -6 0 -27 7 -46 15 -19 8 -50
22 -70 31 -19 8 -42 13 -50 10 -8 -3 -13 -2 -10 3 7 11 -69 35 -84 26 -9 -5
-11 -4 -6 3 6 11 -6 16 -26 13 -5 0 -8 4 -8 10 0 8 -6 7 -17 -2 -11 -9 -14
-10 -9 -2 5 9 -5 15 -34 19 -22 4 -43 10 -46 15 -2 4 -11 6 -19 2 -9 -3 -15 1
-15 8 0 11 -3 11 -10 -1 -7 -11 -10 -11 -10 -2 0 7 -4 11 -9 7 -5 -3 -12 -1
-15 3 -3 5 -22 9 -42 10 -21 1 -41 7 -45 13 -5 8 -8 8 -13 0 -5 -8 -16 -5 -37
9 -26 19 -28 19 -22 3 6 -16 5 -16 -10 -5 -9 8 -21 11 -27 7 -5 -3 -10 -1 -10
6 0 6 -8 9 -20 6 -11 -3 -20 -1 -20 4 0 4 -6 6 -14 3 -8 -3 -17 -1 -20 5 -5 7
-15 7 -31 1 -17 -7 -25 -6 -25 1 0 7 -6 6 -17 -2 -11 -10 -14 -10 -9 -1 7 12
-6 15 -106 16 -27 1 -48 4 -48 7 0 3 -21 6 -47 8 -27 1 -59 3 -73 4 -14 2 -31
-2 -39 -7 -11 -8 -13 -8 -8 1 9 15 -212 14 -232 -1 -11 -8 -13 -8 -7 2 7 12
-6 17 -17 5z"/>
<path d="M6541 3644 c0 -11 3 -14 6 -6 3 7 2 16 -1 19 -3 4 -6 -2 -5 -13z"/>
<path d="M1675 460 c-3 -5 -1 -10 4 -10 6 0 11 5 11 10 0 6 -2 10 -4 10 -3 0
-8 -4 -11 -10z"/>
<path d="M2980 26 c0 -2 8 -10 18 -17 15 -13 16 -12 3 4 -13 16 -21 21 -21 13z"/>
</g>
</svg>
